<?xml version="1.0" encoding="UTF-8" standalone="no"?>
<!DOCTYPE svg PUBLIC "-//W3C//DTD SVG 1.1//EN" "http://www.w3.org/Graphics/SVG/1.1/DTD/svg11.dtd">
<svg width="100%" height="100%" viewBox="0 0 4096 4096" version="1.1" xmlns="http://www.w3.org/2000/svg" xmlns:xlink="http://www.w3.org/1999/xlink" xml:space="preserve" xmlns:serif="http://www.serif.com/" style="fill-rule:evenodd;clip-rule:evenodd;stroke-linejoin:round;stroke-miterlimit:2;">
    <g id="Circle" transform="matrix(1.50209,0,0,1.50209,-1286.68,-1009.54)">
        <path d="M1280.45,989.196L1277.94,3081.84C1016.83,2806.5 856.592,2456.97 856.592,2048C856.592,1637.67 1017.9,1264.72 1280.45,989.196ZM2414.53,2079L2414.53,3081.84L3179.57,3081.84L2414.53,2079ZM1973.05,3081.84L1973.05,989.196L1726.9,989.196L1726.9,3081.84L1973.05,3081.84ZM3392.96,1307.14C3514.36,1526.9 3583.45,1779.45 3583.45,2048C3583.45,2286.22 3529.09,2511.83 3432.07,2713.17L2846.1,1967.39L3392.96,1307.14ZM3159.05,989.196L2414.53,989.196L2414.53,1932.67L3159.05,989.196Z"/>
    </g>
</svg>
