<?xml version="1.0" encoding="UTF-8" standalone="no"?>
<!DOCTYPE svg PUBLIC "-//W3C//DTD SVG 1.1//EN" "http://www.w3.org/Graphics/SVG/1.1/DTD/svg11.dtd">
<svg width="100%" height="100%" viewBox="0 0 4096 4096" version="1.1" xmlns="http://www.w3.org/2000/svg" xmlns:xlink="http://www.w3.org/1999/xlink" xml:space="preserve" xmlns:serif="http://www.serif.com/" style="fill-rule:evenodd;clip-rule:evenodd;stroke-linecap:round;stroke-linejoin:round;stroke-miterlimit:1.5;">
    <circle id="Moon" cx="2048" cy="2048" r="2048" style="fill:rgb(166,166,166);"/>
    <path id="Shadow" d="M2839.32,239.617C2839.32,239.617 4011.54,753.9 4011.54,1961.97C4011.54,3075.01 3230.32,4017.01 1980.49,4017.01C862.523,4017.01 332.043,3011.12 332.043,3011.12C332.043,3011.12 1568.95,3547.05 2581.26,2534.75C3538.84,1577.16 2839.32,239.617 2839.32,239.617Z" style="fill:rgb(89,89,89);stroke:black;stroke-width:1px;"/>
    <path id="Craters" d="M740.832,2660.79C889.647,2660.79 1010.47,2781.61 1010.47,2930.43C1010.47,3079.24 889.647,3200.06 740.832,3200.06C592.016,3200.06 471.197,3079.24 471.197,2930.43C471.197,2781.61 592.016,2660.79 740.832,2660.79ZM1705.65,2738C1811.85,2738 1898.08,2824.22 1898.08,2930.43C1898.08,3036.63 1811.85,3122.85 1705.65,3122.85C1599.44,3122.85 1513.22,3036.63 1513.22,2930.43C1513.22,2824.22 1599.44,2738 1705.65,2738ZM2766.05,1782.32C2965.6,1782.32 3127.6,1944.33 3127.6,2143.88C3127.6,2343.43 2965.6,2505.43 2766.05,2505.43C2566.5,2505.43 2404.49,2343.43 2404.49,2143.88C2404.49,1944.33 2566.5,1782.32 2766.05,1782.32ZM2048,1780.06C2148.4,1780.06 2229.91,1861.57 2229.91,1961.97C2229.91,2062.37 2148.4,2143.88 2048,2143.88C1947.6,2143.88 1866.09,2062.37 1866.09,1961.97C1866.09,1861.57 1947.6,1780.06 2048,1780.06ZM3320.16,1491C3396.52,1491 3458.51,1552.99 3458.51,1629.35C3458.51,1705.71 3396.52,1767.7 3320.16,1767.7C3243.8,1767.7 3181.81,1705.71 3181.81,1629.35C3181.81,1552.99 3243.8,1491 3320.16,1491ZM2489.7,793.017C2736.2,793.017 2936.33,993.147 2936.33,1239.65C2936.33,1486.15 2736.2,1686.28 2489.7,1686.28C2243.2,1686.28 2043.07,1486.15 2043.07,1239.65C2043.07,993.147 2243.2,793.017 2489.7,793.017ZM1114.92,401.724C1191.28,401.724 1253.27,463.717 1253.27,540.075C1253.27,616.432 1191.28,678.425 1114.92,678.425C1038.56,678.425 976.567,616.432 976.567,540.075C976.567,463.717 1038.56,401.724 1114.92,401.724Z" style="fill:rgb(128,128,128);stroke:rgb(166,166,166);stroke-width:33.33px;"/>
</svg>
