<?xml version="1.0" encoding="UTF-8" standalone="no"?>
<!DOCTYPE svg PUBLIC "-//W3C//DTD SVG 1.1//EN" "http://www.w3.org/Graphics/SVG/1.1/DTD/svg11.dtd">
<svg width="100%" height="100%" viewBox="0 0 4096 4096" version="1.1" xmlns="http://www.w3.org/2000/svg" xmlns:xlink="http://www.w3.org/1999/xlink" xml:space="preserve" xmlns:serif="http://www.serif.com/" style="fill-rule:evenodd;clip-rule:evenodd;stroke-linejoin:round;stroke-miterlimit:2;">
    <path id="Light" d="M2048,50.569C917.069,50.569 0,967.435 0,2098.57C0,3003.4 586.814,3771.07 1400.55,4041.88C1502.9,4060.84 1540.48,3997.45 1540.48,3943.36C1540.48,3894.55 1538.58,3733.19 1537.7,3562.06C967.94,3685.95 847.715,3320.42 847.715,3320.42C754.553,3083.74 620.321,3020.76 620.321,3020.76C434.506,2893.65 634.328,2896.26 634.328,2896.26C839.983,2910.71 948.27,3107.34 948.27,3107.34C1130.93,3420.4 1427.37,3329.89 1544.24,3277.56C1562.66,3145.22 1615.7,3054.84 1674.27,3003.7C1219.38,2951.95 741.191,2776.31 741.191,1991.57C741.191,1768.01 821.194,1585.32 952.204,1441.89C930.94,1390.28 860.84,1181.98 972.078,899.878C972.078,899.878 1144.06,844.87 1535.39,1109.84C1698.75,1064.46 1873.95,1041.71 2048,1040.89C2222.05,1041.71 2397.38,1064.46 2561.05,1109.84C2951.94,844.87 3123.68,899.878 3123.68,899.878C3235.16,1181.98 3165.06,1390.28 3143.8,1441.89C3275.11,1585.32 3354.54,1768.01 3354.54,1991.57C3354.54,2778.21 2875.43,2951.37 2419.39,3002.07C2492.85,3065.63 2558.3,3190.26 2558.3,3381.33C2558.3,3655.36 2555.96,3875.9 2555.96,3943.36C2555.96,3997.89 2592.8,4061.75 2696.61,4041.64C3509.93,3770.53 4096,3003.12 4096,2098.57C4096,967.435 3179.07,50.569 2048,50.569ZM1370.25,3393.89C1370.83,3410.77 1351.16,3424.78 1326.81,3425.09C1302.32,3425.66 1282.48,3411.96 1282.21,3395.34C1282.21,3378.28 1301.47,3364.45 1325.93,3364.01C1350.28,3363.53 1370.25,3377.13 1370.25,3393.89ZM1526.21,3367.35C1529.13,3383.8 1512.2,3400.72 1488.02,3405.24C1464.25,3409.61 1442.24,3399.4 1439.22,3383.09C1436.27,3366.2 1453.46,3349.28 1477.24,3344.9C1501.45,3340.7 1523.12,3350.6 1526.21,3367.35ZM1202.63,3381.63C1197.65,3397.67 1174.66,3404.93 1151.46,3398.11C1128.3,3391.09 1113.14,3372.34 1117.82,3356.12C1122.63,3339.95 1145.76,3332.39 1169.13,3339.68C1192.26,3346.66 1207.45,3365.32 1202.63,3381.63ZM1050.02,3315.46C1038.8,3327.84 1014.89,3324.51 997.388,3307.62C979.481,3291.11 974.496,3267.67 985.721,3255.3C997.116,3242.88 1021.16,3246.38 1038.8,3263.13C1056.57,3279.61 1061.96,3303.22 1050.02,3315.46ZM939.405,3201.49C926.857,3210.24 906.305,3202.07 893.621,3183.86C881.073,3165.61 881.073,3143.77 893.926,3135.02C906.61,3126.27 926.857,3134.18 939.71,3152.22C952.224,3170.73 952.224,3192.58 939.405,3201.49ZM858.659,3083.56C848.892,3092.61 829.764,3088.41 816.843,3074.1C803.413,3059.82 800.937,3040.69 810.84,3031.53C820.913,3022.48 839.43,3026.72 852.826,3041C866.256,3055.44 868.867,3074.4 858.659,3083.56ZM775.695,2991.02C771.185,3001.23 755.177,3004.28 740.594,2997.26C725.706,2990.58 717.397,2976.71 722.213,2966.5C726.622,2956.06 742.629,2953.14 757.483,2960.13C772.338,2966.81 780.816,2980.82 775.695,2991.02Z" style="fill:white;"/>
</svg>
