<svg xmlns="http://www.w3.org/2000/svg" xmlns:xlink="http://www.w3.org/1999/xlink" viewBox="0 0 65 66" fill="#fff" fill-rule="evenodd" stroke="#000" stroke-linecap="round" stroke-linejoin="round"><use xlink:href="#A" x=".5" y=".5"/><symbol id="A" overflow="visible"><g stroke="none"><g fill="#989ba1" fill-rule="nonzero"><path d="M63.739 29.015l.148 2.933c0-1-.06-1.966-.148-2.933z"/><path d="M16.349 28.846s-8.882 32.73 26.722 33.015a31.94 31.94 0 0 0 20.65-26.646c.086-.85.112-1.717.13-2.586l.034-.68c0-1-.06-1.966-.148-2.933-9.405 37.03-51.018 22.525-47.388-.17z"/></g><path d="M34.76 16.696S1.612 7.442 2.119 43.585a32.07 32.07 0 0 0 7.725 11.55l.434.395c.959.884 1.971 1.709 3.03 2.47l.484.362a31.81 31.81 0 0 0 3.497 2.076 24.09 24.09 0 0 0 1.07.514c1.04.49 2.107.922 3.194 1.296l.792.3a31.45 31.45 0 0 0 3.975.942l1.23.188a32.02 32.02 0 0 0 4.209.328c.054 0 .106.008.16.008a31.92 31.92 0 0 0 3.146-.16C-2.133 54.98 12.01 13.389 34.76 16.707z" fill="#929497" fill-rule="nonzero"/><path d="M47.681 33.839S55.524.773 20.221 2.253C6.463 7.571-1.79 21.696.331 36.293c7.43-37.4 49.758-25.297 47.35-2.452zm-16.95 14.23s33.208 4.334 31.13-27.236C56.513 6.254 41.411-2.323 26.151.553c37.003 4.542 27.386 47.838 4.58 47.515zm10.43-16.12a8.95 8.95 0 0 1-15.28 6.329 8.95 8.95 0 0 1 6.336-15.277 8.95 8.95 0 0 1 8.944 8.948z" fill="#989ba1" fill-rule="nonzero"/></g></symbol></svg>